<svg xmlns="http://www.w3.org/2000/svg" width="389.949" height="130.475"><linearGradient id="a" gradientUnits="userSpaceOnUse" x1="117.869" y1="192.934" x2="240.942" y2="-20.234"><stop offset=".041" stop-color="#393d82"/><stop offset=".515" stop-color="#eb5b4c"/><stop offset="1" stop-color="#f28e3e"/></linearGradient><path fill="url(#a)" d="m351.253 79.757 5.901-21.319c.577-.028 1.153-.072 1.73-.086V47.86h-.131a65.92 65.92 0 0 0-21.255 4.079c-6.671 2.466-12.325 6.775-16.815 12.799a26.51 26.51 0 0 0-3.453 6.07 17.11 17.11 0 0 0-1.282 6.482l.118 2.466h-16.842l1.818-2.849a30.057 30.057 0 0 0 3.008-6.209c.724-2.105 1.102-4.263 1.102-6.406 0-3.609-.982-6.732-2.988-9.556-2.004-2.811-4.643-4.719-8.069-5.834a13.315 13.315 0 0 0-2.792-.706c-4.661-.645-9.355.274-13.681 2.622a44.786 44.786 0 0 0-9.728 7.147l-2.89 2.794-.254-4.006a48.799 48.799 0 0 0-.413-4.03 28.431 28.431 0 0 0-.662-3.259c-.131-.725-.221-1.225-.314-1.681l-.142-.716-9.985 2.163c.041.205.075.418.109.643.038.323.09.621.168.919.302 1.206.548 2.551.749 4.112.202 1.553.299 3.284.299 5.137 0 2.436-.246 5.252-.727 8.364-.461 2.912-1.282 6.297-2.444 10.045l-.41 1.307h-22.784l5.903-21.32c.575-.028 1.151-.072 1.725-.086V47.86h-.128a65.933 65.933 0 0 0-21.258 4.079c-6.669 2.466-12.32 6.775-16.808 12.799a26.44 26.44 0 0 0-3.454 6.07 17.11 17.11 0 0 0-1.282 6.482l.109 2.466h-35.85a2.08 2.08 0 0 1-1.883-1.192 2.396 2.396 0 0 1-.256-1.085c0-.492.115-1.077.366-1.9.182-.596.37-1.225.556-1.873l.13-.457.188-.189c.067-.161.153-.325.255-.476.264-.686.504-1.271.73-1.763.076-.172.139-.317.182-.427v-.164l.197-.394c.217-.429.456-.856.726-1.282.23-.369.485-.782.764-1.244 1.638-2.573 3.777-4.916 6.376-7.016 2.744-2.215 5.718-3.45 8.836-3.666l2.201-.153-.719 6.953h10.459l.51-4.503c.014-.355.071-.686.172-.984l-.029-.741c0-3.008-.936-5.411-2.864-7.33-1.955-1.958-4.435-3.081-7.574-3.429h-.47a2.7 2.7 0 0 1-.875-.142h-.541c-5.31 0-10.433 1.917-15.228 5.698-4.835 3.811-8.51 8.063-10.926 12.626-.019.063-.04.115-.063.175v.057l-.178.377a46.49 46.49 0 0 0-2.389 6.138 21.367 21.367 0 0 0-.975 6.39c0 .69.056 1.371.139 2.045h-11.16c1.262-2.684 1.897-5.752 1.897-9.277 0-3.267-.557-6.521-1.667-9.663-1.105-3.131-2.691-5.977-4.713-8.443l-.918-1.113.861-1.165a197.258 197.258 0 0 0 3.93-5.476c.169-.246.318-.465.462-.664l-9.211-4.55c-.51.716-1.23 1.706-2.259 3.109a435.244 435.244 0 0 0-6.636 9.318c-.571.757-.893 1.162-1.215 1.567-1.178 1.474-2.397 2.994-14.838 20.864l12.81.109c3.46-5.036 5.06-7.409 5.795-8.528l-.063-.085 4.224-5.78 1.36 2.726a16.644 16.644 0 0 1 1.278 3.585c.317 1.315.475 2.729.475 4.189 0 3.046-.779 5.373-2.31 6.909-1.537 1.539-3.815 2.319-6.771 2.319l-15.499.053.019-.052-24.1.178 6.038-3.546c4.103-2.917 7.328-5.744 9.581-8.405 2.192-2.586 3.647-4.973 4.325-7.092.375-.951.606-1.712.721-2.379.125-.697.187-1.37.187-2.018 0-3.273-1.235-5.747-3.768-7.568-2.729-1.96-5.756-2.912-9.264-2.912-.61 0-1.172.019-1.691.063-.514.047-1.033.109-1.557.197a21.646 21.646 0 0 0-3.47.85 20.195 20.195 0 0 0-3.565 1.624c-3.018 1.471-5.877 3.609-8.592 6.409-2.71 2.808-5.044 6.414-6.934 10.726a68.247 68.247 0 0 0-1.845 5.132 26.629 26.629 0 0 0-1.124 5.367c.01.29-.226 1.186-.593 1.384-.719.389-9.116 3.933-11.803 4.761L67.871 5.716H53.626L35.523 62.204c-2.278 5.548-5.879 9.949-10.802 13.192-1.605 1.026-2.772 1.534-3.51 1.534-.737 0-1.112-.47-1.112-1.408 0-.421.124-.94.375-1.537l16.895-53.157c.802-2.474 1.203-4.654 1.203-6.532 0-3.502-1.386-5.87-4.159-7.106-2.765-1.239-6.523-1.859-11.263-1.859-1.725 0-3.129.126-4.21.385-1.069.254-1.934.618-2.578 1.085a3.607 3.607 0 0 0-1.34 1.791 7.337 7.337 0 0 0-.373 2.371c0 2.305.954 3.459 2.864 3.459h1.017c2.46 0 3.697.9 3.697 2.69 0 .602-.157 1.408-.466 2.431l-15.79 49.19c-1.115 3.587-1.665 6.704-1.665 9.351 0 6.064 2.369 9.096 7.112 9.096 7.51 0 13.946-3.202 19.304-9.61l-3.604 11.664C-13.469 109.917.967 128.64 10.454 130.138c5.641.89 17.199 2.702 28.86-34.464 0 0 20.146-8.321 20.186-8.271 1.517 1.867 6.049 2.679 8.308 2.679h133.8l.294.101c2.221.766 4.537 1.02 6.842.826a22.038 22.038 0 0 0 1.557-.191 22.397 22.397 0 0 0 4.585-1.055 22.568 22.568 0 0 0 4.257-1.966l1.057-.629.99.719c.904.659 1.903 1.2 2.975 1.61 1.003.388 2.163.585 3.445.585h20.022l-12.857 40.279 10.833-.087 11.428-35.924a68.45 68.45 0 0 1 6.418-13.936c2.595-4.284 5.329-8.109 8.112-11.368.35-.364 1.635-1.928 1.635-1.928 2.551-2.652 5.102-4.774 7.585-6.319 4.642-2.876 8.869-3.136 11.772-1.252 1.034.678 2.259 2.042 2.259 4.747 0 3.221-1.34 6.25-3.987 9.009-2.504 2.608-5.339 4.503-8.423 5.632-.831.246-1.539.418-2.236.572-.787.169-1.586.251-2.373.251h-7.817c-.566.787-1.471 2.103-2.144 3.358-1.168 2.185-2.442 4.968-3.319 6.967h60.148l.298.101c2.22.766 4.533 1.02 6.838.826a22.156 22.156 0 0 0 1.556-.191 22.467 22.467 0 0 0 4.591-1.055 22.832 22.832 0 0 0 4.257-1.966l1.055-.629.993.719c.897.659 1.897 1.2 2.969 1.61 1.009.388 2.165.585 3.448.585h35.938l3.341-10.324h-38.697zM12.255 117.908c-4.398-4.002 11.637-15.953 11.637-15.953s-5.217 21.794-11.637 15.953zM67.871 72.45s.374-4.781 6.079-11.209c5.708-6.428 15.792-9.469 11.696-1.63-4.097 7.84-17.775 12.839-17.775 12.839zm148.764 3.996c-2.157 2.95-5.43 4.443-9.725 4.443-1.225 0-2.176-.383-2.83-1.148-.563-.659-.864-1.446-.864-2.261 0-.454.066-.924.197-1.452.104-.418.215-.798.321-1.121l.287-.618.308-.615a9.68 9.68 0 0 1 .548-.957c.212-.413.428-.779.64-1.096.13-.197.234-.369.307-.508l.163-.265a26.304 26.304 0 0 1 6.103-5.952 30.47 30.47 0 0 1 7.404-3.773 37.925 37.925 0 0 1 4.467-1.381c-1.1 3.709-5.432 14.109-7.326 16.704zm123.058 0c-2.16 2.95-5.424 4.443-9.723 4.443-1.225 0-2.176-.383-2.83-1.148-.566-.659-.864-1.446-.864-2.261 0-.454.063-.924.197-1.452.101-.418.211-.798.323-1.121l.287-.618.303-.615c.17-.328.347-.64.552-.957.213-.413.424-.779.634-1.096.134-.197.241-.369.309-.508l.161-.265a26.228 26.228 0 0 1 6.108-5.952 30.433 30.433 0 0 1 7.398-3.773 37.796 37.796 0 0 1 3.106-1.007c-1.12 6.622-4.063 13.735-5.961 16.33z"/></svg>